# xmcd CD database file
#
# Track frame offsets:
#	150
#	16197
#	31425
#	54847
#	78377
#	99727
#	115710
#	147925
#	172377
#	192137
#	211900
#	233437
#
# Disc length: 3318 seconds
#
# Revision: 0
# Processed by: cddbd v1.5.1PL0 Copyright (c) Steve Scherf et al.
# Submitted via: CDex 1.51
#
DISCID=960cf40c
DTITLE=Various Artist - Jazz Ballad
DYEAR=1900
DGENRE=Jazz
TTITLE0=How Deep Is The Ocean? - Bil Evans
TTITLE1=I've Grown Accustomed To Her Face - Shelly Manne
TTITLE2=Willow Weep For Me - Sonny Criss
TTITLE3=Star Eyes - Art Pepper
TTITLE4=Green Dolphin Street - Wynton Kelly
TTITLE5=Warm Valley - Duke Ellington
TTITLE6=Virgo - Wayne Shorter
TTITLE7=Three To Get Ready - Dave Brubeck
TTITLE8=Ralph's New Blues - Junior Mance
TTITLE9=To Young To Go Steady - John Coltrane
TTITLE10=O Grande Amor - Stan Getz
TTITLE11=Once Upon A Summertime - Miles Davis
EXTD=
EXTT0=
EXTT1=
EXTT2=
EXTT3=
EXTT4=
EXTT5=
EXTT6=
EXTT7=
EXTT8=
EXTT9=
EXTT10=
EXTT11=
PLAYORDER=
